<?xml version="1.0" encoding="utf-8"?>
<!-- Generator: Adobe Illustrator 18.1.1, SVG Export Plug-In . SVG Version: 6.00 Build 0)  -->
<svg version="1.1" xmlns="http://www.w3.org/2000/svg" xmlns:xlink="http://www.w3.org/1999/xlink" x="0px" y="0px"
	 viewBox="0 0 337.3 183.3" enable-background="new 0 0 337.3 183.3" xml:space="preserve">
<g id="guides_x2B_annotations">
</g>
<g id="content">
	<g>
		<g>
			<path fill="#DBDDDD" d="M300.2,169.2H36.4l0-158.8c0-5.1,4.1-9.2,9.2-9.2L291.3,1c5.1,0,9.2,4.1,9.2,9.2L300.2,169.2z"/>
			<polygon fill="#EDEDED" points="336.8,176.2 1,176 1,168.8 336.4,168.9 			"/>
			<path fill="#EDEDED" d="M1,176c0,3.2,7.4,6.5,15.1,6.5h307.3c7.7,0,13-3.3,13-6.5"/>
			<rect x="44.9" y="20.4" fill="#FFFFFF" width="244.9" height="135.1"/>
			<rect x="44.9" y="15.1" fill="#AAB1B2" width="244.9" height="5.3"/>
			<path fill="none" stroke="#AAB1B2" stroke-width="2" stroke-miterlimit="10" d="M300.4,168.8H36.6V10.2c0-5.1,4.1-9.2,9.2-9.2
				h245.4c5.1,0,9.2,4.1,9.2,9.2V168.8z"/>
			<rect x="44.9" y="15.1" fill="none" stroke="#AAB1B2" stroke-width="2" stroke-miterlimit="10" width="244.9" height="140.4"/>
			<rect x="1" y="168.8" fill="none" stroke="#AAB1B2" stroke-width="2" stroke-miterlimit="10" width="335.3" height="7.1"/>
			<path fill="none" stroke="#AAB1B2" stroke-width="2" stroke-miterlimit="10" d="M131.3,169.3c0,1.7,1.4,3.1,3.1,3.1h68.4
				c1.7,0,3.1-1.4,3.1-3.1c0-0.2,0-0.3,0-0.5h-74.6C131.4,169,131.3,169.1,131.3,169.3z"/>
			<path fill="none" stroke="#AAB1B2" stroke-width="2" stroke-miterlimit="10" d="M1,176.5c0,3.2,6.3,5.8,14,5.8h307.3
				c7.7,0,14-2.6,14-5.8"/>
			<circle fill="#AAB1B2" cx="169.9" cy="7.5" r="2.6"/>
			<path fill="none" stroke="#AEBFC1" stroke-width="2" stroke-miterlimit="10" d="M259.6,114.5"/>
			<path fill="none" stroke="#AEBFC1" stroke-width="2" stroke-miterlimit="10" d="M171.7,114.5"/>
			<path fill="none" stroke="#AEBFC1" stroke-width="2" stroke-miterlimit="10" d="M230.2,119.9"/>
			<path fill="none" stroke="#AEBFC1" stroke-width="2" stroke-miterlimit="10" d="M171.7,119.9"/>
			<path fill="none" stroke="#AEBFC1" stroke-width="2" stroke-miterlimit="10" d="M259.6,109"/>
			<path fill="none" stroke="#AEBFC1" stroke-width="2" stroke-miterlimit="10" d="M171.7,109"/>
		</g>
		<g>
			<g opacity="0.38">
				<path fill="#CED8D8" d="M289.8,73.2C289.9,73.2,289.9,73.2,289.8,73.2c0.1,0,0.2,0,0.2,0c-0.1-0.2-0.1-0.3-0.2-0.5
					c0-0.1,0-0.1-0.1-0.2V73.2z"/>
				<path fill="#CED8D8" d="M289.8,68.5C289.9,68.5,289.9,68.5,289.8,68.5C289.9,68.4,289.9,68.4,289.8,68.5L289.8,68.5z"/>
			</g>
			<g>
				<rect x="46" y="20.4" fill="#4DBDEB" width="242.7" height="134.1"/>
				<path fill="none" stroke="#AEBFC1" stroke-width="2" stroke-miterlimit="10" d="M258.8,113.8"/>
				<path fill="none" stroke="#AEBFC1" stroke-width="2" stroke-miterlimit="10" d="M171.6,113.8"/>
				<path fill="none" stroke="#AEBFC1" stroke-width="2" stroke-miterlimit="10" d="M229.7,119.2"/>
				<path fill="none" stroke="#AEBFC1" stroke-width="2" stroke-miterlimit="10" d="M171.6,119.2"/>
				<path fill="none" stroke="#AEBFC1" stroke-width="2" stroke-miterlimit="10" d="M258.8,108.4"/>
				<path fill="none" stroke="#AEBFC1" stroke-width="2" stroke-miterlimit="10" d="M171.6,108.4"/>
			</g>
		</g>
	</g>
</g>
</svg>
